<?xml version="1.0" encoding="UTF-8"?>
<svg id="Layer_2" xmlns="http://www.w3.org/2000/svg" version="1.1" viewBox="0 0 422.8 181.6">
  <!-- Generator: Adobe Illustrator 29.0.1, SVG Export Plug-In . SVG Version: 2.1.0 Build 192)  -->
  <defs>
    <style>
      .st0 {
        fill: #20417e;
      }

      .st1 {
        fill: #7ea2d3;
      }

      .st2 {
        fill: #b92328;
      }

      .st3 {
        fill: #fff;
      }

      .st4 {
        fill: #3c64ac;
      }

      .st5 {
        isolation: isolate;
      }

      .st6 {
        fill: #e82429;
      }

      .st7 {
        fill: #ffb563;
      }

      .st8 {
        fill: #f0626e;
      }

      .st9 {
        fill: #495899;
      }
    </style>
  </defs>
  <g id="Camada_4">
    <polygon class="st9" points="53.2 0 0 92 106.4 92 53.2 0"/>
    <path class="st7" d="M328.4,62h14.4v5.2h-21.2v-3.7l6.6-11.5c1.4-2.5,2.8-5,4-7.5,1.3-2.5,2.3-4.9,3.1-7.3.8-2.4,1.2-4.6,1.2-6.7v-2.7c0-2-.4-3.4-1.2-4.3s-1.9-1.3-3.4-1.3-1.8.2-2.4.6-1.2,1.1-1.6,2c-.4.9-.6,2.2-.7,3.7l-.2,8.5-5.5-.9.2-6.9c.2-2.9.7-5.2,1.5-7,.9-1.8,2.1-3.1,3.6-3.9,1.6-.8,3.4-1.2,5.6-1.2s3.9.4,5.4,1.2,2.7,2,3.5,3.6,1.2,3.7,1.2,6.1v2.1c0,2.6-.5,5.3-1.4,8-1,2.7-2.2,5.4-3.6,8.1s-3,5.5-4.8,8.2l-4.3,7.7h0Z"/>
    <path class="st7" d="M359,17c3.9,0,6.7,1.1,8.5,3.4s2.7,5.9,2.7,10.7v22.5c0,4.8-1,8.4-2.9,10.8-2,2.4-4.9,3.5-8.7,3.5s-6.8-1.2-8.6-3.5c-1.8-2.3-2.7-5.9-2.7-10.7v-22.5c0-4.8,1-8.4,3-10.7,2-2.4,4.9-3.5,8.7-3.5h0ZM358.8,22c-1.9,0-3.3.7-4.2,2.1s-1.4,3.5-1.4,6.4v24.1c0,2.8.4,5,1.3,6.3s2.3,2.1,4.3,2.1,3.4-.7,4.3-2.1,1.3-3.5,1.3-6.4v-24.1c0-2.8-.4-4.9-1.3-6.3-.9-1.4-2.3-2.1-4.3-2.1h0Z"/>
    <path class="st7" d="M381.7,62h14.4v5.2h-21.2v-3.7l6.6-11.5c1.4-2.5,2.8-5,4-7.5,1.3-2.5,2.3-4.9,3.1-7.3.8-2.4,1.2-4.6,1.2-6.7v-2.7c0-2-.4-3.4-1.2-4.3s-1.9-1.3-3.4-1.3-1.8.2-2.4.6-1.2,1.1-1.6,2c-.4.9-.6,2.2-.7,3.7l-.2,8.5-5.5-.9.2-6.9c.2-2.9.7-5.2,1.5-7,.9-1.8,2.1-3.1,3.6-3.9,1.6-.8,3.4-1.2,5.6-1.2s3.9.4,5.4,1.2,2.7,2,3.5,3.6,1.2,3.7,1.2,6.1v2.1c0,2.6-.5,5.3-1.4,8-1,2.7-2.2,5.4-3.6,8.1s-3,5.5-4.8,8.2l-4.3,7.7h0Z"/>
    <path class="st7" d="M410.4,17.8h7v34.6h4.8v5.2h-4.8v9.6h-5.8v-9.6h-14.1v-3.9l12.9-35.9h0ZM411.7,25.8l-9.1,26.7h9l.3-26.7h-.2,0Z"/>
    <path class="st3" d="M137.7,15.1c-.2,0-.3,0-.4-.2s-.2-.3-.2-.4V2c0-.2,0-.3.2-.4.1-.1.2-.2.4-.2h7c.2,0,.3,0,.4.2s.2.2.2.4v.6c0,.2,0,.3-.2.4-.1.1-.2.2-.4.2h-5.5c-.1,0-.2,0-.2.2v3.8c0,.1,0,.2.2.2h4.7c.2,0,.3,0,.4.2.1.1.2.3.2.4v.6c0,.2,0,.3-.2.4-.1.1-.2.2-.4.2h-4.7c-.1,0-.2,0-.2.2v5c0,.2,0,.3-.2.4s-.2.2-.4.2h-.7,0Z"/>
    <path class="st3" d="M149.9,15.3c-.6,0-1.3-.1-1.8-.4-.6-.2-1.1-.6-1.5-1s-.8-.9-1-1.5c-.2-.6-.4-1.2-.4-1.8s.1-1.3.4-1.8.6-1.1,1-1.5.9-.8,1.5-1c.6-.2,1.2-.4,1.8-.4s1.3.1,1.8.4c.6.2,1.1.6,1.5,1s.8.9,1,1.5c.2.6.4,1.2.4,1.8s-.1,1.3-.4,1.8-.6,1.1-1,1.5c-.4.4-.9.8-1.5,1-.6.2-1.2.4-1.8.4ZM149.9,13.6c.4,0,.8,0,1.1-.2s.7-.4.9-.6.5-.6.6-.9c.1-.4.2-.8.2-1.2s0-.8-.2-1.2c-.1-.4-.4-.7-.6-.9-.2-.3-.6-.5-.9-.6-.4-.2-.7-.2-1.1-.2s-.8,0-1.1.2c-.4.2-.6.4-.9.6-.3.3-.5.6-.6.9s-.2.8-.2,1.2,0,.8.2,1.2c.1.4.4.7.6.9.3.3.6.5.9.6.4.2.7.2,1.1.2ZM150.5,4.5c-.1.1-.2.2-.4.2-.2,0-.3,0-.4-.1l-.4-.3c-.1-.1-.2-.2-.2-.4,0-.2,0-.3.1-.5l1.4-1.8c.1-.1.3-.2.4-.2.1,0,.3,0,.4.2l.4.3c.1.1.2.3.2.4,0,.2,0,.3-.2.5l-1.4,1.8Z"/>
    <path class="st3" d="M163,15.1c-.3,0-.6-.2-.7-.5l-2.4-5.1c0-.2-.2-.3-.4-.3h-1.9c-.1,0-.2,0-.2.2v5.1c0,.2,0,.3-.2.4s-.2.2-.4.2h-.7c-.2,0-.3,0-.4-.2s-.2-.3-.2-.4V2c0-.2,0-.3.2-.4.1-.1.2-.2.4-.2h4.1c.5,0,1,.1,1.5.3s.9.5,1.2.8c.3.3.6.8.8,1.2.2.5.3,1,.3,1.5s-.2,1.4-.5,2c-.4.6-.8,1-1.4,1.4-.2.1-.3.3-.1.6l2.4,5.2c0,.2.1.4,0,.5s-.2.2-.4.2h-.9ZM160.1,7.4c.3,0,.5,0,.8-.2s.5-.2.6-.4c.2-.2.3-.4.4-.7.1-.3.2-.5.2-.8s0-.6-.2-.8-.3-.5-.4-.6c-.2-.2-.4-.3-.6-.4-.2,0-.5-.1-.8-.1h-2.5c-.1,0-.2,0-.2.2v3.7c0,.1,0,.2.2.2h2.5Z"/>
    <path class="st3" d="M172.5,2c0-.2,0-.3.2-.4.1-.1.2-.2.4-.2h.7c.2,0,.3,0,.4.2.1.1.2.2.2.4v8.6c0,.7-.1,1.3-.4,1.9-.2.6-.6,1.1-1,1.5-.4.4-.9.7-1.5.9-.6.2-1.2.3-1.9.3s-1.3-.1-1.9-.3c-.6-.2-1.1-.5-1.5-.9s-.8-.9-1-1.5-.4-1.2-.4-1.9V2c0-.2,0-.3.2-.4.1-.1.2-.2.4-.2h.7c.2,0,.3,0,.4.2s.2.2.2.4v8.6c0,.8.2,1.5.7,2,.5.5,1.2.8,2.1.8s1.6-.3,2.1-.8c.5-.5.7-1.2.7-2V2h0Z"/>
    <path class="st3" d="M185.8,15.1c-.2,0-.3,0-.4-.2s-.2-.3-.2-.4V5.2c0-.1,0-.2-.1-.2s-.1,0-.2.2l-2,5.7c-.1.4-.4.5-.7.5h-1.3c-.4,0-.6-.2-.7-.5l-2-5.7c0-.1-.1-.2-.2-.2s-.1,0-.1.3v9.3c0,.2,0,.3-.2.4s-.2.2-.4.2h-.7c-.2,0-.3,0-.4-.2-.1-.1-.2-.3-.2-.4V2c0-.2,0-.3.2-.4.1-.1.2-.2.4-.2h1.8c.2,0,.3,0,.4.1s.2.2.2.4l2.4,7c0,.1.1.2.2.2,0,0,.1,0,.2-.2l2.4-7c0-.1.1-.3.2-.4.1,0,.2-.1.4-.1h1.8c.2,0,.3,0,.4.2s.2.2.2.4v12.5c0,.2,0,.3-.2.4s-.3.2-.4.2h-.7,0Z"/>
    <path class="st3" d="M194.1,15.1c-.2,0-.3,0-.4-.2-.1-.1-.2-.3-.2-.4V2c0-.2,0-.3.2-.4.1-.1.2-.2.4-.2h3.4c.5,0,1,.1,1.5.3.5.2.9.5,1.3.8.4.3.6.8.9,1.2.2.5.3,1,.3,1.5s0,.9-.3,1.3c-.2.4-.4.8-.7,1.2-.1.1-.1.3,0,.4.6.4,1,.9,1.3,1.4s.5,1.1.5,1.8-.1,1.1-.3,1.5c-.2.5-.5.9-.9,1.2s-.8.6-1.2.8c-.5.2-1,.3-1.5.3h-4.2ZM197.4,7.4c.2,0,.5,0,.8-.1.3,0,.5-.2.7-.4.2-.2.4-.4.5-.7.1-.3.2-.6.2-.9s0-.7-.2-.9c-.1-.2-.3-.5-.5-.6-.2-.2-.4-.3-.7-.3-.2,0-.5-.1-.8-.1h-1.8c-.1,0-.2,0-.2.2v3.7c0,.1,0,.2.2.2h1.8ZM198.2,13.3c.2,0,.5,0,.8-.1.2,0,.5-.2.7-.4.2-.2.4-.4.5-.6.1-.2.2-.6.2-.9s0-.7-.2-.9c-.1-.3-.3-.5-.5-.7-.2-.2-.4-.3-.7-.4s-.5-.1-.8-.1h-2.6c-.1,0-.2,0-.2.2v3.7c0,.1,0,.2.2.2h2.6Z"/>
    <path class="st3" d="M212.3,15.1c-.1.1-.3.1-.5.1-.2,0-.3,0-.5-.1l-5.9-3.4c0,0-.2,0-.2,0s-.1.1-.1.2l-.8,2.7c0,.3-.3.5-.7.5h-1c-.4,0-.5-.2-.4-.6l4-12.6c0-.2.2-.4.3-.4.1,0,.3-.1.4-.1h1.4c.2,0,.3,0,.5.1.1,0,.2.2.3.4l3.9,12c.1.3,0,.6-.2.7l-.5.4h0ZM207.9,4c0-.2-.1-.2-.2-.2s-.2,0-.2.2l-1.6,5.3c0,.2,0,.3,0,.4,0,0,.1.2.2.2l3.8,2.2c.1,0,.3.1.3,0,0,0,0-.2,0-.2l-2.4-7.9h0Z"/>
    <path class="st3" d="M214.3,15.1c-.2,0-.3,0-.4-.2-.1-.1-.2-.3-.2-.4V2c0-.2,0-.3.2-.4.1-.1.2-.2.4-.2h.7c.2,0,.3,0,.4.2.1.1.2.2.2.4v12.5c0,.2,0,.3-.2.4s-.2.2-.4.2h-.7Z"/>
    <path class="st3" d="M226.4,15.1c-.1.1-.3.1-.4.1-.2,0-.3,0-.5-.1l-5.9-3.4c-.1,0-.2,0-.2,0s-.1.1-.1.2l-.8,2.7c-.1.3-.3.5-.7.5h-1c-.4,0-.5-.2-.4-.6l4-12.6c0-.2.2-.4.3-.4.1,0,.3-.1.5-.1h1.4c.2,0,.3,0,.5.1.1,0,.2.2.3.4l3.9,12c.1.3,0,.6-.2.7l-.5.4h0ZM221.9,4c0-.2-.1-.2-.2-.2s-.2,0-.2.2l-1.6,5.3c0,.2,0,.3,0,.4,0,0,.1.2.2.2l3.8,2.2c.1,0,.2.1.3,0,0,0,0-.2,0-.2l-2.4-7.9h0Z"/>
    <path class="st3" d="M235.9,15.1c-.2,0-.3,0-.5-.1-.1-.1-.2-.2-.4-.4l-5.1-8.9c0-.1-.1-.2-.2-.1,0,0-.1,0-.1.2v8.9c0,.2,0,.3-.2.4s-.3.2-.4.2h-.7c-.2,0-.3,0-.4-.2-.1-.1-.2-.3-.2-.4V2c0-.2,0-.3.2-.4.1-.1.3-.2.4-.2h.8c.2,0,.4,0,.5.1s.2.2.4.4l4.9,8.5c0,0,.1.1.2.1,0,0,.1,0,.1-.2V2c0-.2,0-.3.2-.4.1-.1.3-.2.4-.2h.7c.2,0,.3,0,.4.2s.2.2.2.4v12.5c0,.2,0,.3-.2.4s-.3.2-.4.2h-.6,0Z"/>
    <path class="st3" d="M248.1,10.7c0,.7-.1,1.3-.4,1.9-.2.6-.6,1.1-1,1.5-.4.4-.9.7-1.5.9-.6.2-1.2.3-1.9.3s-1.3-.1-1.9-.3c-.6-.2-1.1-.5-1.5-.9-.4-.4-.8-.9-1-1.5-.2-.6-.4-1.2-.4-1.9v-4.8c0-.7.1-1.3.4-1.9.2-.6.6-1.1,1-1.5.4-.4.9-.7,1.5-.9.6-.2,1.2-.3,1.9-.3s1.3.1,1.9.3c.6.2,1.1.5,1.5.9.4.4.8.9,1,1.5.2.6.4,1.2.4,1.9v4.8ZM246.1,5.9c0-.8-.2-1.5-.7-2-.5-.5-1.2-.8-2.1-.8s-1.6.3-2.1.8c-.5.5-.7,1.2-.7,2v4.8c0,.8.2,1.5.7,2,.5.5,1.2.8,2.1.8s1.6-.3,2.1-.8c.5-.5.7-1.2.7-2v-4.8Z"/>
    <path class="st3" d="M255.1,15.1c-.2,0-.3,0-.4-.2-.1-.1-.2-.3-.2-.4V2c0-.2,0-.3.2-.4.1-.1.3-.2.4-.2h3.5c.7,0,1.4.1,2,.4.6.2,1.1.6,1.6,1s.8.9,1,1.5c.2.6.4,1.2.4,1.9v4c0,.7-.1,1.3-.4,1.9-.2.6-.6,1.1-1,1.5-.4.4-1,.8-1.6,1-.6.2-1.3.4-2,.4h-3.5ZM261.7,6.3c0-.5,0-.9-.2-1.3-.1-.4-.4-.7-.6-.9-.3-.3-.6-.5-1-.6s-.8-.2-1.2-.2h-2c-.1,0-.2,0-.2.2v9.6c0,.1,0,.2.2.2h2c.5,0,.9,0,1.2-.2s.7-.3,1-.6.5-.6.6-.9c.1-.4.2-.8.2-1.3v-4h0Z"/>
    <path class="st3" d="M265.6,15.1c-.2,0-.3,0-.5-.2-.1-.1-.2-.3-.2-.4V2c0-.2,0-.3.2-.4.1-.1.2-.2.5-.2h6.7c.2,0,.3,0,.4.2.1.1.2.2.2.4v.6c0,.2,0,.3-.2.4-.1.1-.3.2-.4.2h-5.1c-.1,0-.2,0-.2.2v3.6c0,.1,0,.2.2.2h4.8c.2,0,.3,0,.5.2.1.1.2.2.2.4v.6c0,.2,0,.3-.2.4-.1.1-.3.2-.5.2h-4.8c-.1,0-.2,0-.2.2v3.8c0,.1,0,.2.2.2h5.5c.2,0,.3,0,.5.2.1.1.2.3.2.4v.6c0,.2,0,.3-.2.4-.1.1-.3.2-.5.2h-7.1Z"/>
    <path class="st3" d="M113.3,51.8c-.4,0-.7-.1-.9-.3-.2-.2-.3-.5-.3-.9v-26.1c0-.4.1-.7.3-.9.2-.2.5-.3.9-.3h13.9c.4,0,.7.1.9.3s.3.5.3.9v1.3c0,.4-.1.7-.3.9-.2.2-.5.3-.9.3h-10.8c-.3,0-.4.1-.4.4v7.6c0,.3.1.4.4.4h9.9c.4,0,.7.1.9.3.2.2.3.5.3.9v1.3c0,.4-.1.7-.3.9-.2.2-.5.3-.9.3h-9.9c-.3,0-.4.1-.4.4v8c0,.3.1.4.4.4h11.6c.4,0,.7.1.9.3.2.2.3.5.3.9v1.3c0,.4-.1.7-.3.9-.2.2-.5.3-.9.3h-14.8Z"/>
    <path class="st3" d="M149,47.2c.3.3.4.6.4.9,0,.3-.2.6-.4.8-.9.9-1.9,1.7-3.2,2.3-1.2.7-2.8,1-4.7,1s-2.6-.2-3.8-.7c-1.2-.5-2.2-1.2-3.1-2.1s-1.5-2-2-3.2-.7-2.6-.7-4.1v-9.3c0-1.5.2-2.8.7-4.1s1.2-2.3,2-3.2c.9-.9,1.9-1.6,3.1-2.1,1.2-.5,2.5-.8,3.8-.8s1.8,0,2.5.3,1.4.4,2.1.7c.6.3,1.2.6,1.6,1s.9.7,1.2,1c.6.6.6,1.2,0,1.8l-1,1c-.3.3-.6.4-.8.5-.3,0-.6-.1-.9-.5-.4-.3-.9-.7-1.7-1.2-.7-.5-1.8-.7-3.1-.7s-1.7.2-2.4.5c-.7.3-1.3.8-1.8,1.4s-.9,1.2-1.1,2c-.2.8-.4,1.6-.4,2.5v9.3c0,1.9.5,3.4,1.5,4.6,1,1.2,2.4,1.8,4.1,1.8s2.3-.2,3.1-.7c.9-.5,1.6-.9,2.1-1.4.2-.2.5-.3.9-.4.3,0,.6,0,.9.4l.9.8h0Z"/>
    <path class="st3" d="M170.7,42.6c0,1.4-.2,2.8-.7,3.9s-1.2,2.2-2.1,3.1c-.9.8-1.9,1.5-3.1,2-1.2.5-2.5.7-4,.7s-2.8-.2-4-.7c-1.2-.5-2.2-1.1-3.1-2-.9-.8-1.6-1.9-2.1-3.1-.5-1.2-.7-2.5-.7-3.9v-10.1c0-1.4.2-2.7.7-3.9.5-1.2,1.2-2.2,2.1-3.1.9-.8,1.9-1.5,3.1-2s2.5-.7,4-.7,2.8.2,4,.7,2.2,1.1,3.1,2,1.6,1.9,2.1,3.1c.5,1.2.7,2.5.7,3.9v10.1ZM166.7,32.5c0-1.7-.5-3.1-1.5-4.2-1-1.1-2.5-1.7-4.4-1.7s-3.4.6-4.4,1.7c-1,1.1-1.5,2.5-1.5,4.2v10.1c0,1.7.5,3.1,1.5,4.2,1,1.1,2.5,1.7,4.4,1.7s3.4-.6,4.4-1.7c1-1.1,1.5-2.5,1.5-4.2v-10.1Z"/>
    <path class="st3" d="M190.7,51.8c-.4,0-.7-.1-.9-.3-.2-.2-.5-.5-.7-1l-10.7-18.8c-.1-.2-.3-.3-.4-.2-.1,0-.2.2-.2.4v18.6c0,.4-.1.7-.3.9-.2.2-.5.3-.9.3h-1.5c-.4,0-.7-.1-.9-.3-.2-.2-.3-.5-.3-.9v-26.1c0-.4.1-.7.3-.9.2-.2.5-.3.9-.3h1.6c.4,0,.8,0,1.1.2s.5.4.8.8l10.2,17.8c.1.2.2.2.4.2.1,0,.2-.2.2-.4v-17.5c0-.4.1-.7.3-.9.2-.2.5-.3.9-.3h1.5c.4,0,.7.1.9.3.2.2.3.5.3.9v26.1c0,.4-.1.7-.3.9-.2.2-.5.3-.9.3h-1.3Z"/>
    <path class="st3" d="M216,42.6c0,1.4-.2,2.8-.7,3.9s-1.2,2.2-2.1,3.1c-.9.8-1.9,1.5-3.1,2-1.2.5-2.5.7-4,.7s-2.8-.2-4-.7c-1.2-.5-2.3-1.1-3.1-2-.9-.8-1.6-1.9-2.1-3.1-.5-1.2-.7-2.5-.7-3.9v-10.1c0-1.4.2-2.7.7-3.9.5-1.2,1.2-2.2,2.1-3.1.9-.8,1.9-1.5,3.1-2,1.2-.5,2.5-.7,4-.7s2.8.2,4,.7c1.2.5,2.2,1.1,3.1,2,.9.8,1.6,1.9,2.1,3.1.5,1.2.7,2.5.7,3.9v10.1ZM212,32.5c0-1.7-.5-3.1-1.5-4.2-1-1.1-2.5-1.7-4.4-1.7s-3.4.6-4.4,1.7c-1,1.1-1.5,2.5-1.5,4.2v10.1c0,1.7.5,3.1,1.5,4.2,1,1.1,2.5,1.7,4.4,1.7s3.4-.6,4.4-1.7c1-1.1,1.5-2.5,1.5-4.2v-10.1Z"/>
    <path class="st3" d="M239.9,51.8c-.4,0-.7-.1-.9-.3-.2-.2-.3-.5-.3-.9v-19.5c0-.2,0-.4-.2-.5-.2,0-.3,0-.4.3l-4.3,12c-.3.8-.8,1.1-1.5,1.1h-2.7c-.7,0-1.2-.4-1.5-1.1l-4.3-12c-.1-.2-.2-.4-.4-.4s-.2.2-.2.5v19.5c0,.4-.1.7-.3.9-.2.2-.5.3-.9.3h-1.5c-.4,0-.7-.1-.9-.3-.2-.2-.3-.5-.3-.9v-26.1c0-.4.1-.7.3-.9.2-.2.5-.3.9-.3h3.7c.4,0,.7,0,.9.3.2.2.4.4.5.7l5,14.7c0,.3.2.4.4.4.2,0,.3-.2.4-.4l5-14.7c.1-.3.3-.6.5-.7.2-.2.5-.3.9-.3h3.7c.4,0,.7.1.9.3s.3.5.3.9v26.1c0,.4-.1.7-.3.9-.2.2-.5.3-.9.3h-1.5,0Z"/>
    <path class="st3" d="M247.2,51.8c-.4,0-.7-.1-.9-.3-.2-.2-.3-.5-.3-.9v-26.1c0-.4.1-.7.3-.9.2-.2.5-.3.9-.3h1.5c.4,0,.7.1.9.3.2.2.3.5.3.9v26.1c0,.4-.1.7-.3.9-.2.2-.5.3-.9.3h-1.5Z"/>
    <path class="st3" d="M272.4,51.8c-.3.2-.6.3-1,.3-.4,0-.7-.1-1-.3l-12.3-7.2c-.2-.1-.4-.1-.5,0-.1.1-.3.2-.3.4l-1.7,5.7c-.2.7-.7,1-1.4,1h-2.1c-.8,0-1.1-.4-.9-1.2l8.4-26.4c.1-.5.3-.8.6-.9.2-.2.5-.2,1-.2h3c.4,0,.7,0,1,.2.2.1.4.5.6.9l8.1,25.2c.2.7,0,1.2-.3,1.5l-1,.8h0ZM263,28.5c0-.3-.2-.5-.4-.5s-.3.1-.4.5l-3.3,11.1c-.1.4-.1.6,0,.8,0,.2.2.3.4.4l7.9,4.6c.3.2.5.2.7,0,.1-.2.2-.3.1-.5l-4.9-16.6h0Z"/>
    <path class="st3" d="M132.7,91.2c-.3.2-.6.3-1,.3s-.7-.1-1.1-.3l-13.2-7.7c-.2-.1-.4-.1-.6,0-.2.1-.3.3-.3.4l-1.9,6.2c-.2.7-.7,1.1-1.5,1.1h-2.2c-.9,0-1.2-.4-.9-1.3l9.1-28.3c.2-.5.4-.8.6-1,.3-.2.6-.2,1-.2h3.2c.4,0,.8,0,1,.2.2.2.5.5.6,1l8.7,27.1c.2.7,0,1.2-.4,1.6l-1.1.9h0ZM122.7,66.1c0-.3-.2-.5-.4-.5s-.4.2-.4.5l-3.6,12c-.1.4-.1.7,0,.9,0,.2.2.4.4.5l8.5,5c.3.2.6.2.7,0s.2-.4.1-.6c0,0-5.3-17.8-5.3-17.8Z"/>
    <path class="st3" d="M137.2,91.2c-.4,0-.8-.1-1-.4-.2-.2-.4-.6-.4-1v-28.1c0-.4.1-.8.4-1,.2-.2.6-.4,1-.4h9.5c1.2,0,2.4.2,3.4.7,1.1.5,2,1.1,2.8,2,.8.8,1.4,1.8,1.9,2.9s.7,2.3.7,3.5-.2,2.4-.7,3.5-1.1,2.1-1.9,2.9c-.8.8-1.7,1.5-2.8,2-1.1.5-2.2.7-3.4.7h-6.1c-.3,0-.5.2-.5.4v10.9c0,.4-.1.8-.4,1s-.6.4-1,.4h-1.6,0ZM146.4,74.4c.6,0,1.2-.1,1.8-.3s1.1-.5,1.5-.9.8-.9,1.1-1.6c.3-.6.4-1.3.4-2.2s-.1-1.5-.4-2.2c-.3-.6-.7-1.1-1.1-1.6-.4-.4-1-.7-1.5-.9-.6-.2-1.2-.3-1.8-.3h-5.8c-.3,0-.5.2-.5.4v9.1c0,.3.2.4.5.4h5.8Z"/>
    <path class="st3" d="M158,91.2c-.4,0-.8-.1-1-.4s-.4-.6-.4-1v-28.1c0-.4.1-.8.4-1,.2-.2.6-.4,1-.4h1.6c.4,0,.8.1,1,.4.2.2.4.6.4,1v24.9c0,.3.1.4.4.4h12.4c.4,0,.8.1,1,.4s.4.6.4,1v1.4c0,.4-.1.8-.4,1s-.6.4-1,.4h-15.8Z"/>
    <path class="st3" d="M177.7,91.2c-.4,0-.8-.1-1-.4-.2-.2-.4-.6-.4-1v-28.1c0-.4.1-.8.4-1,.2-.2.6-.4,1-.4h1.6c.4,0,.8.1,1,.4.2.2.4.6.4,1v28.1c0,.4-.1.8-.4,1s-.6.4-1,.4h-1.6Z"/>
    <path class="st3" d="M202.6,86.2c.3.3.4.6.4,1s-.2.7-.4.9c-1,1-2.1,1.8-3.4,2.5-1.3.7-3,1-5,1s-2.9-.3-4.1-.8c-1.3-.5-2.4-1.3-3.3-2.2-.9-.9-1.6-2.1-2.2-3.4-.5-1.3-.8-2.8-.8-4.4v-10c0-1.6.3-3,.8-4.4.5-1.3,1.3-2.5,2.2-3.5.9-1,2-1.7,3.3-2.2,1.3-.5,2.6-.8,4.1-.8s1.9,0,2.7.3,1.6.5,2.2.8c.7.3,1.2.6,1.7,1,.5.4.9.7,1.2,1.1.6.6.6,1.3,0,1.9l-1,1c-.3.3-.6.5-.9.5-.3,0-.6-.1-.9-.5-.4-.4-1-.8-1.8-1.3-.8-.5-1.9-.7-3.3-.7s-1.8.2-2.6.5c-.7.3-1.4.8-1.9,1.4-.5.6-.9,1.3-1.2,2.2-.3.8-.4,1.7-.4,2.7v10c0,2,.5,3.7,1.6,4.9,1.1,1.3,2.6,1.9,4.5,1.9s2.5-.2,3.4-.8,1.7-1,2.2-1.5c.3-.2.6-.4.9-.4.4,0,.7.1,1,.4l.9.9h0Z"/>
    <path class="st3" d="M225.5,91.2c-.3.2-.6.3-1,.3s-.7-.1-1.1-.3l-13.2-7.7c-.2-.1-.4-.1-.6,0-.2.1-.3.3-.3.4l-1.9,6.2c-.2.7-.7,1.1-1.6,1.1h-2.2c-.9,0-1.2-.4-.9-1.3l9.1-28.3c.1-.5.4-.8.6-1,.3-.2.6-.2,1-.2h3.2c.4,0,.8,0,1,.2.2.2.5.5.6,1l8.7,27.1c.2.7,0,1.2-.4,1.6l-1,.9h0ZM215.5,66.1c0-.3-.2-.5-.4-.5s-.4.2-.4.5l-3.6,12c-.1.4-.1.7,0,.9,0,.2.2.4.4.5l8.5,5c.3.2.6.2.7,0,.1-.2.2-.4.1-.6l-5.3-17.8h0Z"/>
    <path class="st3" d="M230,91.2c-.4,0-.8-.1-1-.4s-.4-.6-.4-1v-28.1c0-.4.1-.8.4-1,.2-.2.6-.4,1-.4h7.9c1.7,0,3.2.3,4.6.8s2.6,1.3,3.5,2.3c1,1,1.7,2.1,2.2,3.5.5,1.3.8,2.8.8,4.3v9.1c0,1.5-.3,3-.8,4.3-.5,1.3-1.3,2.5-2.2,3.4-1,1-2.1,1.7-3.5,2.3-1.4.6-2.9.8-4.6.8h-7.9ZM244.8,71.3c0-1.1-.2-2-.5-2.9-.3-.8-.8-1.6-1.4-2.2-.6-.6-1.3-1-2.1-1.3-.8-.3-1.8-.4-2.7-.4h-4.5c-.3,0-.4.2-.4.4v21.8c0,.3.1.4.4.4h4.5c1,0,1.9-.2,2.7-.4.8-.3,1.6-.7,2.1-1.3.6-.6,1.1-1.3,1.4-2.1.3-.8.5-1.8.5-2.9v-9.1Z"/>
    <path class="st3" d="M272.7,91.2c-.3.2-.6.3-1,.3-.4,0-.7-.1-1.1-.3l-13.2-7.7c-.2-.1-.4-.1-.6,0s-.3.3-.3.4l-1.9,6.2c-.2.7-.7,1.1-1.5,1.1h-2.2c-.9,0-1.2-.4-.9-1.3l9.1-28.3c.1-.5.4-.8.6-1,.3-.2.6-.2,1-.2h3.2c.4,0,.8,0,1,.2.3.2.5.5.6,1l8.7,27.1c.2.7,0,1.2-.4,1.6l-1,.9h0ZM262.7,66.1c0-.3-.2-.5-.5-.5s-.4.2-.5.5l-3.6,12c-.1.4-.1.7,0,.9,0,.2.2.4.5.5l8.5,5c.3.2.6.2.7,0,.1-.2.2-.4.1-.6l-5.3-17.8h0Z"/>
    <path class="st3" d="M120.9,15.2c-.2,0-.3,0-.4-.2l-3-5.1h0l-3,5.1c0,.1-.2.2-.4.2h-1.5c-.4,0-.6-.4-.4-.6l3.9-6.2c0-.1,0-.3,0-.4l-3.7-6c-.2-.3,0-.6.4-.6h1.7c.2,0,.3,0,.4.2l2.8,4.8h0l2.9-4.8c0-.1.2-.2.4-.2h1.5c.4,0,.6.4.4.6l-3.7,5.7c0,.1,0,.3,0,.4l3.9,6.4c.2.3,0,.6-.4.6h-1.7Z"/>
    <path class="st3" d="M125.3,15.1c-.2,0-.3,0-.4-.2s-.2-.3-.2-.4V2c0-.2,0-.3.2-.4.1-.1.3-.2.4-.2h.7c.2,0,.3,0,.4.2s.2.2.2.4v12.5c0,.2,0,.3-.2.4s-.3.2-.4.2h-.7Z"/>
    <path class="st3" d="M129.3,15.1c-.2,0-.3,0-.4-.2s-.2-.3-.2-.4V2c0-.2,0-.3.2-.4.1-.1.3-.2.4-.2h.7c.2,0,.3,0,.4.2s.2.2.2.4v12.5c0,.2,0,.3-.2.4s-.3.2-.4.2h-.7Z"/>
    <polygon class="st1" points="41.6 20.6 64.9 20.6 53.3 .5 41.6 20.6"/>
    <polygon class="st8" points="53.3 43 53.3 43 64.9 22.9 41.6 22.9 53.3 43 53.3 43"/>
    <polygon class="st1" points="51.3 44.5 39.7 24.4 28.1 44.5 51.3 44.5 51.3 44.5"/>
    <polygon class="st4" points="14.6 67.6 37.6 67.6 26.1 47.7 14.6 67.6"/>
    <polygon class="st4" points="78.4 44.5 66.8 24.4 55.2 44.5 55.2 44.5 78.4 44.5"/>
    <polygon class="st6" points="51.1 46.8 28.3 46.8 39.7 66.5 51.1 46.8"/>
    <polygon class="st8" points="78.2 46.8 55.4 46.8 66.8 66.5 78.2 46.8"/>
    <polygon class="st4" points="41.9 67.6 64.7 67.6 53.3 47.9 41.9 67.6"/>
    <polygon class="st4" points="92 67.6 80.5 47.7 69 67.6 92 67.6"/>
    <polygon class="st2" points="37.8 69.9 37.8 69.9 14.6 69.9 26.2 90 37.8 69.9"/>
    <polygon class="st2" points="41.6 69.9 53.3 90 64.9 69.9 64.8 69.9 41.7 69.9 41.6 69.9"/>
    <polygon class="st6" points="92 69.9 68.8 69.9 68.7 69.9 80.3 90 92 69.9"/>
    <polygon class="st0" points="39.8 71.3 51.4 91.5 28.2 91.5 39.8 71.3"/>
    <polygon class="st0" points="12.7 71.3 24.4 91.5 1.1 91.5 12.7 71.3"/>
    <polygon class="st4" points="66.9 71.3 55.3 91.5 78.5 91.5 66.9 71.3"/>
    <polygon class="st1" points="94 71.3 82.3 91.5 105.6 91.5 94 71.3"/>
    <rect class="st3" x="298.3" y="1.5" width="2.7" height="90.6"/>
    <g class="st5">
      <g class="st5">
        <path class="st3" d="M1.8,141.6c-.2,0-.3,0-.3-.3v-17.2c0-.2,0-.3.3-.3h8.5c.2,0,.3,0,.3.3v2.2c0,.2,0,.3-.3.3h-5.7v4.7h5.3c.2,0,.3.1.3.3v2c0,.2,0,.3-.3.3h-5.3v5h5.7c.2,0,.3,0,.3.3v2.2c0,.2,0,.3-.3.3H1.8Z"/>
        <path class="st3" d="M19.1,141.8c-1.9,0-3.3-.5-4.3-1.5-1-1-1.5-2.6-1.5-4.7v-5.8c0-2.1.5-3.6,1.5-4.7,1-1,2.4-1.6,4.3-1.6s2.4.3,3.3.8c.9.5,1.6,1.2,2,2.2.4.9.5,2,.4,3.3,0,.2-.1.3-.3.3h-2.5c-.2,0-.3,0-.3-.3,0-1.1,0-2-.5-2.6-.4-.6-1.1-.9-2.1-.9s-1.6.3-2.1.9c-.5.6-.7,1.5-.7,2.7v5.6c0,1.3.2,2.2.7,2.7.5.6,1.2.9,2.1.9s1.7-.3,2.1-1c.4-.6.6-1.5.5-2.5,0-.2,0-.3.2-.3h2.5c.2,0,.3.1.3.4.2,1.9-.3,3.4-1.3,4.5-1,1.1-2.5,1.7-4.5,1.7Z"/>
        <path class="st3" d="M33.5,141.8c-1.9,0-3.4-.5-4.3-1.5-1-1-1.5-2.5-1.5-4.5v-6.1c0-2,.5-3.5,1.5-4.6,1-1,2.4-1.5,4.3-1.5s3.4.5,4.4,1.5c1,1,1.5,2.5,1.5,4.6v6.1c0,2-.5,3.5-1.5,4.5-1,1-2.5,1.5-4.4,1.5ZM33.5,139c.9,0,1.7-.3,2.1-.8.5-.6.7-1.4.7-2.6v-5.8c0-1.2-.2-2.1-.7-2.6-.5-.6-1.2-.8-2.1-.8s-1.6.3-2.1.8c-.5.6-.7,1.4-.7,2.6v5.8c0,1.2.2,2.1.7,2.6.5.6,1.2.8,2.1.8Z"/>
        <path class="st3" d="M42.9,141.6c-.2,0-.2,0-.2-.3v-17.2c0-.2,0-.3.3-.3h3.5c.2,0,.3,0,.3.2l3.2,8.9c.2.5.4,1,.6,1.6.2.6.4,1.1.5,1.7.2.5.3,1,.4,1.5h0c0-.5,0-1.1,0-1.7,0-.6,0-1.3,0-1.9,0-.7,0-1.2,0-1.7v-8.2c0-.2,0-.3.3-.3h2.4c.2,0,.3,0,.3.3v17.2c0,.2,0,.3-.3.3h-3.4c-.1,0-.3,0-.3-.2l-3.2-8.6c-.3-.8-.6-1.7-.8-2.5-.3-.8-.5-1.6-.7-2.4h0c0,.5,0,1.1,0,1.8s0,1.3,0,2c0,.7,0,1.3,0,1.8v7.9c0,.2,0,.3-.3.3h-2.4Z"/>
        <path class="st3" d="M63.3,141.8c-1.9,0-3.4-.5-4.3-1.5-1-1-1.5-2.5-1.5-4.5v-6.1c0-2,.5-3.5,1.5-4.6,1-1,2.4-1.5,4.3-1.5s3.4.5,4.4,1.5c1,1,1.5,2.5,1.5,4.6v6.1c0,2-.5,3.5-1.5,4.5-1,1-2.5,1.5-4.4,1.5ZM63.3,139c.9,0,1.7-.3,2.1-.8.5-.6.7-1.4.7-2.6v-5.8c0-1.2-.2-2.1-.7-2.6-.5-.6-1.2-.8-2.1-.8s-1.6.3-2.1.8c-.5.6-.7,1.4-.7,2.6v5.8c0,1.2.2,2.1.7,2.6.5.6,1.2.8,2.1.8Z"/>
        <path class="st3" d="M72.5,141.6c-.2,0-.3,0-.3-.3l.3-17.2c0-.2,0-.3.3-.3h3.2c.2,0,.3,0,.3.2l3.3,9.6,3.2-9.6c0-.2.2-.2.3-.2h3.2c.2,0,.3,0,.3.3l.3,17.2c0,.2-.1.3-.3.3h-2.5c-.2,0-.3,0-.3-.3v-8.7c-.2-.8-.1-1.5-.1-2.3,0-.7,0-1.4,0-2.1h0c-.2.6-.4,1.2-.6,1.9s-.4,1.3-.7,1.9l-2.7,7.2c0,.1-.2.2-.3.2h-.1c-.1,0-.2,0-.3-.2l-2.7-7.3c-.2-.6-.5-1.2-.7-1.8-.2-.6-.4-1.2-.6-1.8h0c0,.7,0,1.3.1,2.1,0,.7,0,1.5,0,2.2v8.7c-.1.2-.2.3-.4.3h-2.5Z"/>
        <path class="st3" d="M90.5,141.6c-.2,0-.3,0-.3-.3v-17.2c0-.2,0-.3.3-.3h2.5c.2,0,.3,0,.3.3v17.2c0,.2,0,.3-.3.3h-2.5Z"/>
        <path class="st3" d="M95.5,141.6c-.2,0-.3-.1-.2-.3l4.5-17.3c0-.2.2-.2.3-.2h3.3c.2,0,.3,0,.4.2l4.5,17.3c0,.2,0,.3-.2.3h-2.8c-.1,0-.2,0-.3-.2l-2.5-11c-.1-.6-.3-1.2-.4-1.8-.1-.6-.2-1.2-.3-1.8h0c-.1.6-.2,1.2-.3,1.8-.1.6-.2,1.2-.4,1.8l-2.5,11c0,.2-.1.2-.3.2h-2.7ZM98.9,137.8l.5-2.6h4.7l.5,2.6h-5.8Z"/>
        <path class="st3" d="M115.4,141.6c-.2,0-.3,0-.3-.3v-17.2c0-.2,0-.3.3-.3h4.4c2.3,0,4,.6,5.2,1.9,1.1,1.3,1.7,3.2,1.7,5.7v2.1c0,2.7-.6,4.8-1.7,6.1-1.1,1.3-2.8,2-5.1,2h-4.4ZM118.2,138.9h1.5c1.4,0,2.4-.4,3-1.3.6-.9.9-2.2.9-4v-2.2c0-1.6-.3-2.8-1-3.6-.6-.8-1.7-1.2-3.1-1.2h-1.4v12.4Z"/>
        <path class="st3" d="M128.1,141.6c-.2,0-.3-.1-.2-.3l4.5-17.3c0-.2.2-.2.3-.2h3.3c.2,0,.3,0,.4.2l4.5,17.3c0,.2,0,.3-.2.3h-2.8c-.1,0-.2,0-.3-.2l-2.5-11c-.1-.6-.3-1.2-.4-1.8-.1-.6-.2-1.2-.3-1.8h0c-.1.6-.2,1.2-.3,1.8-.1.6-.2,1.2-.4,1.8l-2.5,11c0,.2-.1.2-.3.2h-2.7ZM131.4,137.8l.5-2.6h4.7l.5,2.6h-5.8Z"/>
        <path class="st3" d="M147.4,141.8c-1.9,0-3.3-.5-4.1-1.4-.8-.9-1.2-2.2-1-3.9,0-.3.1-.4.3-.4h2.5c.2,0,.3.1.2.4,0,.9.1,1.5.5,1.9.4.4.9.7,1.7.7s1.4-.2,1.7-.5.5-.9.5-1.6,0-.7-.1-1c-.1-.3-.3-.6-.5-.8-.2-.2-.5-.5-.9-.7l-2.9-1.7c-1-.6-1.7-1.3-2.2-2-.4-.7-.7-1.7-.6-2.8,0-1.5.4-2.6,1.3-3.3.8-.8,2.1-1.2,3.7-1.2s3.1.4,4,1.3c.9.9,1.3,2.2,1.1,3.8,0,.3-.1.4-.3.4h-2.5c-.2,0-.3-.1-.2-.4,0-.7,0-1.3-.4-1.8-.4-.4-.9-.7-1.6-.7s-1.1.1-1.4.4-.5.8-.5,1.4c0,.6.1,1,.4,1.4.3.4.7.7,1.3,1l2.9,1.7c.7.4,1.3.9,1.7,1.3s.7,1,.9,1.5c.2.6.3,1.3.3,2.1,0,1.5-.4,2.7-1.3,3.5s-2.2,1.2-4.1,1.2Z"/>
        <path class="st3" d="M160.5,141.6c-.2,0-.3,0-.3-.3l.3-17.2c0-.2,0-.3.3-.3h3.2c.2,0,.3,0,.3.2l3.3,9.6,3.2-9.6c0-.2.2-.2.3-.2h3.2c.2,0,.3,0,.3.3l.3,17.2c0,.2-.1.3-.3.3h-2.5c-.2,0-.3,0-.3-.3v-8.7c-.2-.8-.1-1.5-.1-2.3,0-.7,0-1.4,0-2.1h0c-.2.6-.4,1.2-.6,1.9s-.4,1.3-.7,1.9l-2.7,7.2c0,.1-.2.2-.3.2h-.1c-.1,0-.2,0-.3-.2l-2.7-7.3c-.2-.6-.5-1.2-.7-1.8-.2-.6-.4-1.2-.6-1.8h0c0,.7,0,1.3.1,2.1,0,.7,0,1.5,0,2.2v8.7c-.1.2-.2.3-.4.3h-2.5Z"/>
        <path class="st3" d="M183.8,141.8c-1.9,0-3.3-.5-4.3-1.6-1-1-1.4-2.6-1.4-4.7v-11.5c0-.2,0-.3.3-.3h2.5c.2,0,.3,0,.3.3v11.4c0,1.3.2,2.2.7,2.7.4.6,1.1.9,2,.9s1.6-.3,2-.9c.4-.6.6-1.5.6-2.7v-11.4c0-.2,0-.3.3-.3h2.5c.2,0,.3,0,.3.3v11.5c0,2.1-.5,3.6-1.4,4.7-1,1.1-2.4,1.6-4.2,1.6Z"/>
        <path class="st3" d="M193.3,141.6c-.2,0-.3,0-.3-.3v-17.2c0-.2,0-.3.3-.3h4.4c2.3,0,4,.6,5.2,1.9,1.1,1.3,1.7,3.2,1.7,5.7v2.1c0,2.7-.6,4.8-1.7,6.1-1.1,1.3-2.8,2-5.1,2h-4.4ZM196,138.9h1.5c1.4,0,2.4-.4,3-1.3.6-.9.9-2.2.9-4v-2.2c0-1.6-.3-2.8-1-3.6-.6-.8-1.7-1.2-3.1-1.2h-1.4v12.4Z"/>
        <path class="st3" d="M205.9,141.6c-.2,0-.3-.1-.2-.3l4.5-17.3c0-.2.2-.2.3-.2h3.3c.2,0,.3,0,.4.2l4.5,17.3c0,.2,0,.3-.2.3h-2.8c-.1,0-.2,0-.3-.2l-2.5-11c-.1-.6-.3-1.2-.4-1.8s-.2-1.2-.3-1.8h0c-.1.6-.2,1.2-.3,1.8-.1.6-.2,1.2-.4,1.8l-2.5,11c0,.2-.1.2-.3.2h-2.7ZM209.2,137.8l.5-2.6h4.7l.5,2.6h-5.8Z"/>
        <path class="st3" d="M220.9,141.6c-.2,0-.2,0-.2-.3v-17.2c0-.2,0-.3.3-.3h3.5c.2,0,.3,0,.3.2l3.2,8.9c.2.5.4,1,.6,1.6.2.6.4,1.1.5,1.7.2.5.3,1,.4,1.5h0c0-.5,0-1.1,0-1.7,0-.6,0-1.3,0-1.9,0-.7,0-1.2,0-1.7v-8.2c0-.2,0-.3.3-.3h2.4c.2,0,.3,0,.3.3v17.2c0,.2,0,.3-.3.3h-3.4c-.1,0-.3,0-.3-.2l-3.2-8.6c-.3-.8-.6-1.7-.8-2.5-.3-.8-.5-1.6-.7-2.4h0c0,.5,0,1.1,0,1.8s0,1.3,0,2c0,.7,0,1.3,0,1.8v7.9c0,.2,0,.3-.3.3h-2.4Z"/>
        <path class="st3" d="M241.3,141.8c-1.9,0-3.3-.5-4.3-1.5-1-1-1.5-2.6-1.5-4.7v-5.8c0-2.1.5-3.6,1.5-4.7,1-1,2.4-1.6,4.3-1.6s2.4.3,3.3.8c.9.5,1.6,1.2,2,2.2.4.9.5,2,.4,3.3,0,.2-.1.3-.3.3h-2.5c-.2,0-.3,0-.3-.3,0-1.1,0-2-.5-2.6-.4-.6-1.1-.9-2.1-.9s-1.6.3-2.1.9c-.5.6-.7,1.5-.7,2.7v5.6c0,1.3.2,2.2.7,2.7.5.6,1.2.9,2.1.9s1.7-.3,2.1-1c.4-.6.6-1.5.5-2.5,0-.2,0-.3.2-.3h2.5c.2,0,.3.1.3.4.2,1.9-.3,3.4-1.3,4.5-1,1.1-2.5,1.7-4.5,1.7ZM241.3,146.9c-.3,0-.5,0-.7,0-.2,0-.4,0-.6,0-.1,0-.2,0-.2,0s0,0,0-.2v-1.2c0-.2,0-.2.2-.2,0,0,.2,0,.3,0,.1,0,.2,0,.4,0,.3,0,.5,0,.6-.2.1-.1.2-.3.2-.5v-.3c0-.3,0-.4-.2-.5-.1,0-.3-.1-.6-.1h-.4c-.1,0-.2,0-.2-.2s0-.2,0-.3c0-.1,0-.2,0-.3l.6-2.1c0-.1.1-.2.3-.2h1.4c.2,0,.3.1.2.3l-.5,1.7h.2c.5,0,.8.1,1.1.4.3.3.4.7.4,1.2v.5c0,.7-.2,1.2-.6,1.6-.4.4-1,.6-1.8.6Z"/>
        <path class="st3" d="M248.9,141.6c-.2,0-.3-.1-.2-.3l4.5-17.3c0-.2.2-.2.3-.2h3.3c.2,0,.3,0,.4.2l4.5,17.3c0,.2,0,.3-.2.3h-2.8c-.1,0-.2,0-.3-.2l-2.5-11c-.1-.6-.3-1.2-.4-1.8s-.2-1.2-.3-1.8h0c-.1.6-.2,1.2-.3,1.8-.1.6-.2,1.2-.4,1.8l-2.5,11c0,.2-.1.2-.3.2h-2.7ZM252.2,137.8l.5-2.6h4.7l.5,2.6h-5.8Z"/>
        <path class="st3" d="M268.2,141.8c-1.9,0-3.3-.5-4.1-1.4s-1.2-2.2-1-3.9c0-.3.1-.4.3-.4h2.5c.2,0,.3.1.2.4,0,.9.1,1.5.5,1.9.4.4.9.7,1.7.7s1.4-.2,1.7-.5.5-.9.5-1.6,0-.7-.2-1c0-.3-.3-.6-.5-.8s-.5-.5-.9-.7l-2.9-1.7c-1-.6-1.7-1.3-2.2-2-.4-.7-.7-1.7-.6-2.8,0-1.5.4-2.6,1.3-3.3.8-.8,2.1-1.2,3.7-1.2s3.1.4,4,1.3c.9.9,1.3,2.2,1.1,3.8,0,.3-.1.4-.3.4h-2.5c-.2,0-.3-.1-.2-.4,0-.7,0-1.3-.4-1.8-.4-.4-.9-.7-1.6-.7s-1.1.1-1.4.4-.5.8-.5,1.4c0,.6.1,1,.4,1.4.3.4.7.7,1.3,1l2.9,1.7c.7.4,1.3.9,1.7,1.3s.7,1,.9,1.5c.2.6.3,1.3.3,2.1,0,1.5-.4,2.7-1.3,3.5s-2.2,1.2-4.1,1.2Z"/>
        <path class="st3" d="M286.9,141.8c-1.9,0-3.3-.5-4.3-1.5-1-1-1.5-2.6-1.5-4.7v-5.8c0-2.1.5-3.6,1.5-4.7,1-1,2.4-1.6,4.3-1.6s2.4.3,3.3.8c.9.5,1.6,1.2,2,2.2.4.9.5,2,.4,3.3,0,.2-.1.3-.3.3h-2.5c-.2,0-.3,0-.3-.3,0-1.1,0-2-.5-2.6-.4-.6-1.1-.9-2.1-.9s-1.6.3-2.1.9c-.5.6-.7,1.5-.7,2.7v5.6c0,1.3.2,2.2.7,2.7.5.6,1.2.9,2.1.9s1.7-.3,2.1-1c.4-.6.6-1.5.5-2.5,0-.2,0-.3.2-.3h2.5c.2,0,.3.1.3.4.2,1.9-.3,3.4-1.3,4.5-1,1.1-2.5,1.7-4.5,1.7Z"/>
        <path class="st3" d="M296.1,141.6c-.2,0-.3,0-.3-.3v-17.2c0-.2,0-.3.3-.3h2.5c0,0,.2,0,.2,0,0,0,0,.1,0,.2v14.8h5.4c.2,0,.3,0,.3.3v2.2c0,.2,0,.3-.3.3h-8.2Z"/>
        <path class="st3" d="M307.3,141.6c-.2,0-.3,0-.3-.3v-17.2c0-.2,0-.3.3-.3h2.5c.2,0,.3,0,.3.3v17.2c0,.2,0,.3-.3.3h-2.5Z"/>
        <path class="st3" d="M313.7,141.6c-.2,0-.3,0-.3-.3l.3-17.2c0-.2,0-.3.3-.3h3.2c.2,0,.3,0,.3.2l3.3,9.6,3.2-9.6c0-.2.2-.2.3-.2h3.2c.2,0,.3,0,.3.3l.3,17.2c0,.2-.1.3-.3.3h-2.5c-.2,0-.3,0-.3-.3v-8.7c-.2-.8-.1-1.5-.1-2.3,0-.7,0-1.4,0-2.1h0c-.2.6-.4,1.2-.6,1.9-.2.6-.4,1.3-.7,1.9l-2.7,7.2c0,.1-.2.2-.3.2h-.1c-.1,0-.2,0-.3-.2l-2.7-7.3c-.2-.6-.5-1.2-.7-1.8-.2-.6-.4-1.2-.6-1.8h0c0,.7,0,1.3.1,2.1,0,.7,0,1.5,0,2.2v8.7c-.1.2-.2.3-.4.3h-2.5Z"/>
        <path class="st3" d="M330.1,141.6c-.2,0-.3-.1-.2-.3l4.5-17.3c0-.2.2-.2.3-.2h3.3c.2,0,.3,0,.4.2l4.5,17.3c0,.2,0,.3-.2.3h-2.8c-.1,0-.2,0-.3-.2l-2.5-11c-.1-.6-.3-1.2-.4-1.8-.1-.6-.2-1.2-.3-1.8h0c-.1.6-.2,1.2-.3,1.8s-.2,1.2-.4,1.8l-2.5,11c0,.2-.1.2-.3.2h-2.7ZM333.5,137.8l.5-2.6h4.7l.5,2.6h-5.8ZM334.7,122.2c0,0-.2,0-.2,0,0,0,0-.1,0-.2l1.6-2.9c0-.1.2-.2.4-.2h2.2c.1,0,.2,0,.2.1s0,.2,0,.3l-1.9,2.9c0,.1-.2.2-.4.2h-1.7Z"/>
        <path class="st3" d="M346.9,141.6c-.2,0-.3,0-.3-.3v-14.8h-3.6c-.2,0-.3,0-.3-.3v-2.2c0-.2,0-.3.3-.3h10.2c.2,0,.3,0,.3.3v2.2c0,.2,0,.3-.3.3h-3.6v14.8c0,.2,0,.3-.3.3h-2.5Z"/>
        <path class="st3" d="M356.4,141.6c-.2,0-.3,0-.3-.3v-17.2c0-.2,0-.3.3-.3h2.5c.2,0,.3,0,.3.3v17.2c0,.2,0,.3-.3.3h-2.5Z"/>
        <path class="st3" d="M368.3,141.8c-1.9,0-3.3-.5-4.3-1.5-1-1-1.5-2.6-1.5-4.7v-5.8c0-2.1.5-3.6,1.5-4.7,1-1,2.4-1.6,4.3-1.6s2.4.3,3.3.8c.9.5,1.6,1.2,2,2.2.4.9.5,2,.4,3.3,0,.2-.1.3-.3.3h-2.5c-.2,0-.3,0-.3-.3,0-1.1,0-2-.5-2.6-.4-.6-1.1-.9-2.1-.9s-1.6.3-2.1.9c-.5.6-.7,1.5-.7,2.7v5.6c0,1.3.2,2.2.7,2.7.5.6,1.2.9,2.1.9s1.7-.3,2.1-1c.4-.6.6-1.5.5-2.5,0-.2,0-.3.2-.3h2.5c.2,0,.3.1.3.4.2,1.9-.3,3.4-1.3,4.5-1,1.1-2.5,1.7-4.5,1.7Z"/>
        <path class="st3" d="M375.8,141.6c-.2,0-.3-.1-.2-.3l4.5-17.3c0-.2.2-.2.3-.2h3.3c.2,0,.3,0,.4.2l4.5,17.3c0,.2,0,.3-.2.3h-2.8c-.1,0-.2,0-.3-.2l-2.5-11c-.1-.6-.3-1.2-.4-1.8s-.2-1.2-.3-1.8h0c-.1.6-.2,1.2-.3,1.8-.1.6-.2,1.2-.4,1.8l-2.5,11c0,.2-.1.2-.3.2h-2.7ZM379.1,137.8l.5-2.6h4.7l.5,2.6h-5.8Z"/>
        <path class="st3" d="M395.1,141.8c-1.9,0-3.3-.5-4.1-1.4-.8-.9-1.2-2.2-1-3.9,0-.3.1-.4.3-.4h2.5c.2,0,.3.1.2.4,0,.9.1,1.5.5,1.9.4.4.9.7,1.7.7s1.4-.2,1.7-.5.5-.9.5-1.6,0-.7-.2-1c0-.3-.3-.6-.5-.8s-.5-.5-.9-.7l-2.9-1.7c-1-.6-1.7-1.3-2.2-2s-.7-1.7-.6-2.8c0-1.5.4-2.6,1.3-3.3.8-.8,2.1-1.2,3.7-1.2s3.1.4,4,1.3c.9.9,1.3,2.2,1.1,3.8,0,.3-.1.4-.3.4h-2.5c-.2,0-.3-.1-.2-.4,0-.7,0-1.3-.4-1.8-.4-.4-.9-.7-1.6-.7s-1.1.1-1.4.4-.5.8-.5,1.4c0,.6.1,1,.4,1.4.3.4.7.7,1.3,1l2.9,1.7c.7.4,1.3.9,1.7,1.3.4.5.7,1,.9,1.5.2.6.3,1.3.3,2.1,0,1.5-.4,2.7-1.3,3.5s-2.2,1.2-4.1,1.2Z"/>
      </g>
      <g class="st5">
        <path class="st7" d="M1.7,176.2c-.1,0-.2,0-.2-.2v-14.9c0-.2,0-.2.2-.2h6.8c.1,0,.2,0,.2.2v1.3c0,.2,0,.3-.2.3H3.4v4.9h4.6c.1,0,.2,0,.2.2v1.3c0,.2,0,.2-.2.2H3.4v5.1h5c.1,0,.2,0,.2.3v1.3c0,.2,0,.2-.2.2H1.7Z"/>
        <path class="st7" d="M20,176.2c-.2,0-.2,0-.2-.2v-14.9c0-.2,0-.2.2-.2h3.2c1.9,0,3.4.5,4.3,1.6,1,1.1,1.4,2.7,1.4,4.8v1.9c0,2.4-.5,4.2-1.4,5.3-.9,1.2-2.4,1.8-4.3,1.8h-3.3ZM21.7,174.5h1.4c1.3,0,2.3-.4,2.9-1.3.6-.8.9-2.2.9-3.9v-2c0-1.6-.3-2.7-.9-3.5-.6-.7-1.6-1.1-3-1.1h-1.3v11.8Z"/>
        <path class="st7" d="M34,176.2c-.1,0-.2,0-.2-.2v-14.9c0-.2,0-.2.2-.2h6.8c.1,0,.2,0,.2.2v1.3c0,.2,0,.3-.2.3h-5v4.9h4.6c.1,0,.2,0,.2.2v1.3c0,.2,0,.2-.2.2h-4.6v5.1h5c.1,0,.2,0,.2.3v1.3c0,.2,0,.2-.2.2h-6.8Z"/>
        <path class="st7" d="M49.6,176.4c-1.6,0-2.7-.4-3.3-1.2-.7-.8-.9-1.9-.8-3.2,0-.2,0-.3.2-.3h1.5c.2,0,.2.1.2.3,0,.9.1,1.6.5,2,.4.4,1,.7,1.8.7s1.4-.2,1.7-.5c.4-.4.6-.9.6-1.6s0-.8-.2-1.1c-.1-.3-.3-.6-.5-.8-.2-.2-.5-.5-.9-.7l-2.5-1.5c-.8-.5-1.5-1.1-1.8-1.7-.4-.6-.5-1.4-.5-2.3,0-1.2.4-2.1,1-2.8.7-.6,1.7-1,3-1s2.5.4,3.2,1.1c.7.8,1,1.8.9,3.2,0,.2,0,.4-.2.4h-1.6c-.1,0-.2-.1-.2-.4,0-.8,0-1.4-.5-1.8s-.9-.6-1.7-.6-1.1.2-1.5.5c-.4.3-.5.8-.6,1.4,0,.6.1,1.1.4,1.5.3.4.7.7,1.2,1.1l2.4,1.5c.6.3,1,.7,1.4,1.1.3.4.6.8.8,1.3.2.5.2,1.1.2,1.7,0,1.3-.3,2.3-1,3-.7.7-1.8,1-3.3,1Z"/>
        <path class="st7" d="M57.3,176.2c-.2,0-.2,0-.2-.3l3.9-15c0-.1.1-.2.3-.2h2.1c.1,0,.2,0,.3.2l3.9,15c0,.2,0,.3-.2.3h-1.7c0,0-.2,0-.2-.2l-2.4-10.1c-.1-.5-.2-1.1-.4-1.6-.1-.5-.2-1-.3-1.5h0c-.1.5-.2,1-.3,1.5-.1.5-.2,1-.3,1.5l-2.4,10.1c0,.1-.1.2-.2.2h-1.6ZM59.6,172.7l.4-1.8h4.5l.4,1.8h-5.3Z"/>
        <path class="st7" d="M74.9,176.4c-1.6,0-2.7-.4-3.3-1.2-.7-.8-.9-1.9-.8-3.2,0-.2,0-.3.2-.3h1.5c.2,0,.2.1.2.3,0,.9.1,1.6.5,2,.4.4,1,.7,1.8.7s1.4-.2,1.7-.5c.4-.4.6-.9.6-1.6s0-.8-.2-1.1c-.1-.3-.3-.6-.5-.8-.2-.2-.5-.5-.9-.7l-2.5-1.5c-.8-.5-1.5-1.1-1.8-1.7-.4-.6-.5-1.4-.5-2.3,0-1.2.4-2.1,1-2.8.7-.6,1.7-1,3-1s2.5.4,3.2,1.1c.7.8,1,1.8.9,3.2,0,.2,0,.4-.2.4h-1.6c-.1,0-.2-.1-.2-.4,0-.8,0-1.4-.5-1.8s-.9-.6-1.7-.6-1.1.2-1.5.5c-.4.3-.5.8-.6,1.4,0,.6.1,1.1.4,1.5.3.4.7.7,1.2,1.1l2.4,1.5c.6.3,1,.7,1.4,1.1.3.4.6.8.8,1.3.2.5.2,1.1.2,1.7,0,1.3-.3,2.3-1,3-.7.7-1.8,1-3.3,1Z"/>
        <path class="st7" d="M86.4,176.2c-.1,0-.2,0-.2-.2v-13.3h-3.2c-.1,0-.2,0-.2-.3v-1.3c0-.2,0-.2.2-.2h8.3c.1,0,.2,0,.2.2v1.3c0,.2,0,.3-.2.3h-3.2v13.3c0,.2,0,.2-.2.2h-1.6Z"/>
        <path class="st7" d="M96.1,176.2c-.1,0-.2,0-.2-.2v-14.9c0-.2,0-.2.2-.2h3.5c1.6,0,2.7.4,3.5,1.1.7.7,1.1,1.8,1.1,3.2s-.2,2-.6,2.8c-.4.7-1,1.2-1.7,1.5h0s3,6.6,3,6.6c0,.2,0,.3-.1.3h-1.8c0,0-.2,0-.2-.1l-2.8-6.4h-2v6.3c0,.2,0,.2-.2.2h-1.6ZM97.8,168h1.7c.9,0,1.6-.2,2-.7.4-.5.6-1.2.6-2.1s-.2-1.7-.6-2c-.4-.4-1.1-.6-2-.6h-1.7v5.4Z"/>
        <path class="st7" d="M109.5,176.2c-.1,0-.2,0-.2-.2v-14.9c0-.2,0-.2.2-.2h6.8c.1,0,.2,0,.2.2v1.3c0,.2,0,.3-.2.3h-5v4.9h4.6c.1,0,.2,0,.2.2v1.3c0,.2,0,.2-.2.2h-4.6v5.1h5c.1,0,.2,0,.2.3v1.3c0,.2,0,.2-.2.2h-6.8Z"/>
        <path class="st7" d="M125,176.4c-1.6,0-2.7-.4-3.3-1.2-.7-.8-.9-1.9-.8-3.2,0-.2,0-.3.2-.3h1.5c.2,0,.2.1.2.3,0,.9.1,1.6.5,2,.4.4,1,.7,1.8.7s1.4-.2,1.7-.5c.4-.4.6-.9.6-1.6s0-.8-.2-1.1c-.1-.3-.3-.6-.5-.8-.2-.2-.5-.5-.9-.7l-2.5-1.5c-.8-.5-1.5-1.1-1.8-1.7-.4-.6-.5-1.4-.5-2.3,0-1.2.4-2.1,1-2.8.7-.6,1.7-1,3-1s2.5.4,3.2,1.1c.7.8,1,1.8.9,3.2,0,.2,0,.4-.2.4h-1.6c-.1,0-.2-.1-.2-.4,0-.8,0-1.4-.5-1.8s-.9-.6-1.7-.6-1.1.2-1.5.5c-.4.3-.5.8-.6,1.4,0,.6.1,1.1.4,1.5.3.4.7.7,1.2,1.1l2.4,1.5c.6.3,1,.7,1.4,1.1.3.4.6.8.8,1.3.2.5.2,1.1.2,1.7,0,1.3-.3,2.3-1,3-.7.7-1.8,1-3.3,1Z"/>
        <path class="st7" d="M140.3,176.2c-.1,0-.2,0-.2-.2v-14.9c0-.2,0-.2.2-.2h2.4c.1,0,.2,0,.2.1l3.1,8.7c.2.4.4.9.5,1.4.2.5.3,1,.5,1.5s.3.9.4,1.3h0c0-.4,0-.9,0-1.4,0-.5,0-1,0-1.6,0-.5,0-1,0-1.4v-8.4c0-.2,0-.2.2-.2h1.5c.1,0,.2,0,.2.2v14.9c0,.2,0,.2-.2.2h-2.4c-.1,0-.2,0-.2-.1l-3.1-8.4c-.3-.8-.5-1.5-.8-2.3-.2-.7-.5-1.4-.7-2.1h0c0,.5,0,1,0,1.5,0,.5,0,1.1,0,1.6,0,.5,0,1,0,1.5v8c0,.2,0,.2-.2.2h-1.5Z"/>
        <path class="st7" d="M153.3,176.2c-.2,0-.2,0-.2-.3l3.9-15c0-.1.1-.2.3-.2h2.1c.1,0,.2,0,.3.2l3.9,15c0,.2,0,.3-.2.3h-1.7c0,0-.2,0-.2-.2l-2.4-10.1c-.1-.5-.2-1.1-.4-1.6-.1-.5-.2-1-.3-1.5h0c-.1.5-.2,1-.3,1.5-.1.5-.2,1-.3,1.5l-2.4,10.1c0,.1-.1.2-.2.2h-1.6ZM155.7,172.7l.4-1.8h4.5l.4,1.8h-5.3Z"/>
        <path class="st7" d="M169,176.2c-.1,0-.2,0-.2-.2v-13.3h-3.2c-.1,0-.2,0-.2-.3v-1.3c0-.2,0-.2.2-.2h8.3c.1,0,.2,0,.2.2v1.3c0,.2,0,.3-.2.3h-3.2v13.3c0,.2,0,.2-.2.2h-1.6Z"/>
        <path class="st7" d="M183,176.4c-1.5,0-2.7-.4-3.4-1.3-.8-.9-1.2-2.2-1.2-3.9v-10.1c0-.2,0-.2.2-.2h1.5c.1,0,.2,0,.2.2v10.1c0,1.2.2,2,.6,2.6.4.6,1.1.8,2,.8s1.5-.3,1.9-.8.6-1.4.6-2.6v-10.1c0-.2,0-.2.2-.2h1.6c.1,0,.2,0,.2.2v10.2c0,1.7-.4,3-1.2,3.9-.8.9-1.9,1.3-3.4,1.3Z"/>
        <path class="st7" d="M192.9,176.2c-.1,0-.2,0-.2-.2v-14.9c0-.2,0-.2.2-.2h3.5c1.6,0,2.7.4,3.5,1.1.7.7,1.1,1.8,1.1,3.2s-.2,2-.6,2.8c-.4.7-1,1.2-1.7,1.5h0s3,6.6,3,6.6c0,.2,0,.3-.1.3h-1.8c0,0-.2,0-.2-.1l-2.8-6.4h-2v6.3c0,.2,0,.2-.2.2h-1.6ZM194.6,168h1.7c.9,0,1.6-.2,2-.7.4-.5.6-1.2.6-2.1s-.2-1.7-.6-2c-.4-.4-1.1-.6-2-.6h-1.7v5.4Z"/>
        <path class="st7" d="M204.7,176.2c-.2,0-.2,0-.2-.3l3.9-15c0-.1.1-.2.3-.2h2.1c.1,0,.2,0,.3.2l3.9,15c0,.2,0,.3-.2.3h-1.7c0,0-.2,0-.2-.2l-2.4-10.1c-.1-.5-.2-1.1-.4-1.6-.1-.5-.2-1-.3-1.5h0c-.1.5-.2,1-.3,1.5-.1.5-.2,1-.3,1.5l-2.4,10.1c0,.1-.1.2-.2.2h-1.6ZM207,172.7l.4-1.8h4.5l.4,1.8h-5.3Z"/>
        <path class="st7" d="M218.9,176.2c-.1,0-.2,0-.2-.2v-14.9c0-.2,0-.2.2-.2h1.6c.1,0,.2,0,.2.2v14.9c0,.2,0,.2-.2.2h-1.6Z"/>
        <path class="st7" d="M229.5,176.4c-1.6,0-2.7-.4-3.3-1.2-.7-.8-.9-1.9-.8-3.2,0-.2,0-.3.2-.3h1.5c.2,0,.2.1.2.3,0,.9.1,1.6.5,2s1,.7,1.8.7,1.4-.2,1.7-.5c.4-.4.6-.9.6-1.6s0-.8-.2-1.1c-.1-.3-.3-.6-.5-.8s-.5-.5-.9-.7l-2.5-1.5c-.8-.5-1.5-1.1-1.8-1.7-.4-.6-.5-1.4-.5-2.3,0-1.2.4-2.1,1-2.8.7-.6,1.7-1,3-1s2.5.4,3.2,1.1c.7.8,1,1.8.9,3.2,0,.2,0,.4-.2.4h-1.6c-.1,0-.2-.1-.2-.4,0-.8,0-1.4-.5-1.8s-.9-.6-1.7-.6-1.1.2-1.5.5c-.4.3-.5.8-.6,1.4,0,.6.1,1.1.4,1.5.3.4.7.7,1.2,1.1l2.4,1.5c.6.3,1,.7,1.4,1.1.3.4.6.8.8,1.3.2.5.2,1.1.2,1.7,0,1.3-.3,2.3-1,3s-1.8,1-3.3,1Z"/>
        <path class="st7" d="M244.8,176.2c-.1,0-.2,0-.2-.2v-14.9c0-.2,0-.2.2-.2h2.4c.1,0,.2,0,.2.1l3.1,8.7c.2.4.4.9.5,1.4.2.5.3,1,.5,1.5.1.5.3.9.4,1.3h0c0-.4,0-.9,0-1.4,0-.5,0-1,0-1.6,0-.5,0-1,0-1.4v-8.4c0-.2,0-.2.2-.2h1.5c.1,0,.2,0,.2.2v14.9c0,.2,0,.2-.2.2h-2.4c-.1,0-.2,0-.2-.1l-3.1-8.4c-.3-.8-.5-1.5-.8-2.3-.2-.7-.5-1.4-.7-2.1h0c0,.5,0,1,0,1.5,0,.5,0,1.1,0,1.6,0,.5,0,1,0,1.5v8c0,.2,0,.2-.2.2h-1.5Z"/>
        <path class="st7" d="M257.8,176.2c-.2,0-.2,0-.2-.3l3.9-15c0-.1.1-.2.3-.2h2.1c.1,0,.2,0,.3.2l3.9,15c0,.2,0,.3-.2.3h-1.7c0,0-.2,0-.2-.2l-2.4-10.1c-.1-.5-.2-1.1-.4-1.6-.1-.5-.2-1-.3-1.5h0c-.1.5-.2,1-.3,1.5-.1.5-.2,1-.3,1.5l-2.4,10.1c0,.1-.1.2-.2.2h-1.6ZM260.2,172.7l.4-1.8h4.5l.4,1.8h-5.3Z"/>
        <path class="st7" d="M278.2,176.2c-.2,0-.2,0-.2-.2v-14.9c0-.2,0-.2.2-.2h3.2c1.5,0,2.6.3,3.4.9.7.6,1.1,1.6,1.1,2.8s-.2,1.5-.5,2.1c-.3.6-.8,1-1.6,1.4h0c.8.3,1.5.7,1.9,1.3.4.6.6,1.5.6,2.6s-.4,2.5-1.2,3.2-2,1.1-3.6,1.1h-3.4ZM279.9,167.5h1.6c.8,0,1.4-.2,1.8-.6s.6-1.1.6-1.9-.2-1.4-.6-1.8c-.4-.4-1-.6-1.9-.6h-1.4v4.9ZM279.9,174.5h1.6c1,0,1.7-.2,2.2-.6.4-.4.7-1.1.7-2.1s-.2-1.6-.7-2-1.1-.7-2.1-.7h-1.7v5.4Z"/>
        <path class="st7" d="M289.7,176.2c-.2,0-.2,0-.2-.3l3.9-15c0-.1.1-.2.3-.2h2.1c.1,0,.2,0,.3.2l3.9,15c0,.2,0,.3-.2.3h-1.7c0,0-.2,0-.2-.2l-2.4-10.1c-.1-.5-.2-1.1-.4-1.6-.1-.5-.2-1-.3-1.5h0c-.1.5-.2,1-.3,1.5-.1.5-.2,1-.3,1.5l-2.4,10.1c0,.1-.1.2-.2.2h-1.6ZM292,172.7l.4-1.8h4.5l.4,1.8h-5.3Z"/>
        <path class="st7" d="M303.9,176.2c-.1,0-.2,0-.2-.2v-14.9c0-.2,0-.2.2-.2h1.6c.1,0,.2,0,.2.2v6.3h5.2v-6.3c0-.2,0-.2.2-.2h1.6c.1,0,.2,0,.2.2v14.9c0,.2,0,.2-.2.2h-1.6c-.1,0-.2,0-.2-.2v-6.8h-5.2v6.8c0,.2,0,.2-.2.2h-1.6Z"/>
        <path class="st7" d="M318.4,176.2c-.1,0-.2,0-.2-.2v-14.9c0-.2,0-.2.2-.2h1.6c.1,0,.2,0,.2.2v14.9c0,.2,0,.2-.2.2h-1.6Z"/>
        <path class="st7" d="M324.1,176.2c-.2,0-.2,0-.2-.3l3.9-15c0-.1.1-.2.3-.2h2.1c.1,0,.2,0,.3.2l3.9,15c0,.2,0,.3-.2.3h-1.7c0,0-.2,0-.2-.2l-2.4-10.1c-.1-.5-.2-1.1-.4-1.6-.1-.5-.2-1-.3-1.5h0c-.1.5-.2,1-.3,1.5-.1.5-.2,1-.3,1.5l-2.4,10.1c0,.1-.1.2-.2.2h-1.6ZM326.5,172.7l.4-1.8h4.5l.4,1.8h-5.3Z"/>
      </g>
    </g>
  </g>
</svg>